<?xml version="1.0" encoding="utf-8"?>
<!-- Generator: Adobe Illustrator 23.0.1, SVG Export Plug-In . SVG Version: 6.00 Build 0)  -->
<svg version="1.1" id="Layer_1" xmlns="http://www.w3.org/2000/svg" xmlns:xlink="http://www.w3.org/1999/xlink" x="0px" y="0px"
	 viewBox="0 0 228.2 278.3" style="enable-background:new 0 0 228.2 278.3;" xml:space="preserve">
<style type="text/css">
	.st0{fill:#B2B9C2;}
	.st1{fill:#53A94D;}
	.st2{fill:#B3B4B7;}
	.st3{fill:#4B9B45;}
</style>
<g>
	<path class="st2" d="M222.9,147.5c-7.7,1.6-15.3,3.5-22.6,5.5c-20.2,5.7-38.6,13-52.9,22.3c-10.8,7-19.3,15-24.6,24.3
		c-3.9,6.8-6,14.2-6,22.3v48.6c0-8.9,2.6-17,7.2-24.3c5.3-8.4,13.4-15.8,23.4-22.3c16.1-10.4,37.3-18.4,60.5-24.3
		c4.9-1.3,9.9-2.4,15-3.5L222.9,147.5z"/>
	<path class="st2" d="M222.9,77.8c-7.7,1.6-15.3,3.5-22.6,5.5c-20.2,5.7-38.6,13-52.9,22.3c-10.8,7-19.3,15-24.6,24.3
		c-3.9,6.8-6,14.2-6,22.3v48.6c0-8.9,2.6-17,7.2-24.3c5.3-8.4,13.4-15.8,23.4-22.3c16.1-10.4,37.3-18.4,60.5-24.3
		c4.9-1.3,9.9-2.4,15-3.5L222.9,77.8z"/>
	<path class="st2" d="M222.9,7.8c-7.7,1.6-15.3,3.5-22.6,5.5c-20.2,5.7-38.6,13-52.9,22.3c-10.8,7-19.3,15-24.6,24.3
		c-3.9,6.8-6,14.2-6,22.3v48.6c0-8.9,2.6-17,7.2-24.3c5.3-8.4,13.4-15.8,23.4-22.3c16.1-10.4,37.3-18.4,60.5-24.3
		c4.9-1.3,9.9-2.4,15-3.5L222.9,7.8z"/>
	<path class="st3" d="M5.3,147.5c7.7,1.6,15.3,3.5,22.6,5.5c20.2,5.7,38.6,13,52.9,22.3c10.8,7,19.3,15,24.6,24.3
		c3.9,6.8,6,14.2,6,22.3v48.6c0-8.9-2.6-17-7.2-24.3c-5.3-8.4-13.4-15.8-23.4-22.3c-16.1-10.4-37.3-18.4-60.5-24.3
		c-4.9-1.3-9.9-2.4-15-3.5L5.3,147.5z"/>
	<path class="st3" d="M5.3,77.8c7.7,1.6,15.3,3.5,22.6,5.5c20.2,5.7,38.6,13,52.9,22.3c10.8,7,19.3,15,24.6,24.3
		c3.9,6.8,6,14.2,6,22.3v48.6c0-8.9-2.6-17-7.2-24.3c-5.3-8.4-13.4-15.8-23.4-22.3c-16.1-10.4-37.3-18.4-60.5-24.3
		c-4.9-1.3-9.9-2.4-15-3.5L5.3,77.8z"/>
	<path class="st3" d="M5.3,7.8c7.7,1.6,15.3,3.5,22.6,5.5c20.2,5.7,38.6,13,52.9,22.3c10.8,7,19.3,15,24.6,24.3
		c3.9,6.8,6,14.2,6,22.3v48.6c0-8.9-2.6-17-7.2-24.3c-5.3-8.4-13.4-15.8-23.4-22.3C64.6,73.8,43.4,65.8,20.2,59.9
		c-4.9-1.3-9.9-2.4-15-3.5L5.3,7.8z"/>
</g>
</svg>
