<svg id="Layer_1" data-name="Layer 1" xmlns="http://www.w3.org/2000/svg" viewBox="0 0 300 283.34"><defs><style>.cls-1{fill:#b2b4b7;}.cls-2{fill:#4a9b2d;}</style></defs><title>Ridgeline_M</title><path class="cls-1" d="M124.57,270.49c.86-47.14,7.12-104.09,20.79-152.65-7.31-26-16.75-49.56-28.62-67.95C103.41,70.57,93.15,97.8,85.51,127.62c11.82,46.12,17.35,98.44,18.18,142.35a20.43,20.43,0,0,0,.44,4.06h20.3c0-1.29.13-2.54.14-3.54"/><path class="cls-1" d="M85.5,18.25A57.24,57.24,0,0,0,25.66,19.8C36.47,26.63,46,37,54.27,49.85,63.25,36,73.61,25,85.5,18.25"/><path class="cls-1" d="M174,49.85C183,36,193.35,25,205.24,18.25a57.22,57.22,0,0,0-59.83,1.55C156.2,26.63,165.7,37,174,49.85"/><path class="cls-1" d="M223.4,268.57a44.54,44.54,0,0,0,.2,5.46h61.52a11.69,11.69,0,0,0,.77-4c-1.36-72.31-15.44-167.47-49.4-220.13-13.34,20.68-23.6,47.91-31.23,77.73,11.68,45.63,17.22,97.33,18.14,141"/><path class="cls-2" d="M67.36,269c.89-43.71,6.43-95.61,18.15-141.41,7.64-29.82,17.9-57.05,31.23-77.73,8.33-12.9,17.84-23.26,28.67-30.09a57.32,57.32,0,0,1,31.21-9.24h-62.5A56.94,56.94,0,0,0,85.5,18.25C73.61,25,63.25,36,54.27,49.85,20.22,102.61,6.15,198.08,4.83,270.45A25,25,0,0,0,4.94,274H67.18a38.74,38.74,0,0,0,.18-5"/><path class="cls-2" d="M233.86,10.56a57,57,0,0,0-28.62,7.69C193.35,25,183,36,174,49.85c-11.87,18.4-21.32,42-28.65,68-13.67,48.56-19.93,105.51-20.79,152.65,0,1-.15,2.25-.14,3.54h62.38a23.47,23.47,0,0,0,.26-3.53c.8-44,6.33-96.57,18.19-142.88,7.63-29.82,17.89-57.05,31.23-77.73,8.32-12.9,17.84-23.26,28.66-30.09a57.31,57.31,0,0,1,31.2-9.24Z"/><path class="cls-1" d="M85,18.67a56.92,56.92,0,0,0-59.45,1.54C36.29,27,45.73,37.27,54,50.07,62.9,36.26,73.2,25.39,85,18.67"/></svg>