<svg id="Layer_1" data-name="Layer 1" xmlns="http://www.w3.org/2000/svg" viewBox="0 0 300 183.2"><defs><style>.cls-1{fill:#4a9b2d;}</style></defs><title>Ridgeline_Arrow</title><path class="cls-1" d="M8.82,172c10-2.13,19.79-4.52,29.28-7.19,26.25-7.39,50.06-16.93,68.63-28.92,14-9.06,25.07-19.52,31.9-31.52a57.59,57.59,0,0,0,7.76-28.89V12.42a57.92,57.92,0,0,1-9.32,31.5c-6.9,10.93-17.36,20.54-30.38,28.94C85.82,86.32,58.33,96.68,28.23,104.38q-9.56,2.45-19.41,4.54Z"/><path class="cls-1" d="M291.18,172c-10-2.13-19.79-4.52-29.28-7.19-26.25-7.39-50.06-16.93-68.63-28.92-14-9.06-25.07-19.52-31.9-31.52a57.59,57.59,0,0,1-7.76-28.89V12.42a57.92,57.92,0,0,0,9.32,31.5c6.9,10.93,17.36,20.54,30.38,28.94,20.87,13.46,48.36,23.82,78.46,31.52q9.56,2.45,19.41,4.54Z"/></svg>